<?xml version="1.0" encoding="UTF-8" standalone="no"?>
<svg xmlns="http://www.w3.org/2000/svg" xmlns:xlink="http://www.w3.org/1999/xlink" contentStyleType="text/css" height="571px" preserveAspectRatio="none" style="width:977px;height:571px;background:#FFFFFF;" version="1.1" viewBox="0 0 977 571" width="977px" zoomAndPan="magnify"><defs/><g><rect fill="#FFFFFF" height="487.7266" style="stroke:#181818;stroke-width:1.0;" width="10" x="151" y="67.4297"/><rect fill="#FFFFFF" height="449.5938" style="stroke:#181818;stroke-width:1.0;" width="10" x="252" y="96.5625"/><rect fill="#FFFFFF" height="29.1328" style="stroke:#181818;stroke-width:1.0;" width="10" x="385" y="125.6953"/><rect fill="#FFFFFF" height="29.1328" style="stroke:#181818;stroke-width:1.0;" width="10" x="479" y="183.9609"/><rect fill="#FFFFFF" height="29.1328" style="stroke:#181818;stroke-width:1.0;" width="10" x="479" y="390.8906"/><rect fill="#FFFFFF" height="289.9297" style="stroke:#181818;stroke-width:1.0;" width="10" x="575" y="242.2266"/><rect fill="#FFFFFF" height="200.6641" style="stroke:#181818;stroke-width:1.0;" width="10" x="580" y="303.4922"/><rect fill="#FFFFFF" height="115.3984" style="stroke:#181818;stroke-width:1.0;" width="10" x="744" y="361.7578"/><rect fill="#FFFFFF" height="14" style="stroke:#181818;stroke-width:1.0;" width="10" x="918" y="449.1563"/><rect fill="none" height="261.9297" style="stroke:#000000;stroke-width:1.5;" width="564" x="407.5" y="257.2266"/><rect fill="none" height="161.6641" style="stroke:#000000;stroke-width:1.5;" width="544" x="417.5" y="323.4922"/><line style="stroke:#181818;stroke-width:0.5;stroke-dasharray:5.0,5.0;" x1="32" x2="32" y1="36.2969" y2="564.1563"/><line style="stroke:#181818;stroke-width:0.5;stroke-dasharray:5.0,5.0;" x1="156" x2="156" y1="36.2969" y2="564.1563"/><line style="stroke:#181818;stroke-width:0.5;stroke-dasharray:5.0,5.0;" x1="257" x2="257" y1="36.2969" y2="564.1563"/><line style="stroke:#181818;stroke-width:0.5;stroke-dasharray:5.0,5.0;" x1="390" x2="390" y1="36.2969" y2="564.1563"/><line style="stroke:#181818;stroke-width:0.5;stroke-dasharray:5.0,5.0;" x1="483.5" x2="483.5" y1="36.2969" y2="564.1563"/><line style="stroke:#181818;stroke-width:0.5;stroke-dasharray:5.0,5.0;" x1="579.5" x2="579.5" y1="36.2969" y2="564.1563"/><line style="stroke:#181818;stroke-width:0.5;stroke-dasharray:5.0,5.0;" x1="748.5" x2="748.5" y1="36.2969" y2="564.1563"/><line style="stroke:#181818;stroke-width:0.5;stroke-dasharray:5.0,5.0;" x1="922.5" x2="922.5" y1="36.2969" y2="564.1563"/><rect fill="#E2E2F0" height="30.2969" rx="2.5" ry="2.5" style="stroke:#181818;stroke-width:0.5;" width="54" x="5" y="5"/><text fill="#000000" font-family="sans-serif" font-size="14" lengthAdjust="spacing" textLength="40" x="12" y="24.9951">Actor</text><rect fill="#E2E2F0" height="30.2969" rx="2.5" ry="2.5" style="stroke:#181818;stroke-width:0.5;" width="96" x="108" y="5"/><text fill="#000000" font-family="sans-serif" font-size="14" lengthAdjust="spacing" textLength="82" x="115" y="24.9951">JavaFXLoop</text><rect fill="#E2E2F0" height="30.2969" rx="2.5" ry="2.5" style="stroke:#181818;stroke-width:0.5;" width="86" x="214" y="5"/><text fill="#000000" font-family="sans-serif" font-size="14" lengthAdjust="spacing" textLength="72" x="221" y="24.9951">presenter</text><rect fill="#E2E2F0" height="30.2969" rx="2.5" ry="2.5" style="stroke:#181818;stroke-width:0.5;" width="46" x="367" y="5"/><text fill="#000000" font-family="sans-serif" font-size="14" lengthAdjust="spacing" textLength="32" x="374" y="24.9951">view</text><rect fill="#E2E2F0" height="30.2969" rx="2.5" ry="2.5" style="stroke:#181818;stroke-width:0.5;" width="113" x="427.5" y="5"/><text fill="#000000" font-family="sans-serif" font-size="14" lengthAdjust="spacing" textLength="99" x="434.5" y="24.9951">scaleStrategy</text><rect fill="#E2E2F0" height="30.2969" rx="2.5" ry="2.5" style="stroke:#181818;stroke-width:0.5;" width="59" x="550.5" y="5"/><text fill="#000000" font-family="sans-serif" font-size="14" lengthAdjust="spacing" textLength="45" x="557.5" y="24.9951">model</text><rect fill="#E2E2F0" height="30.2969" rx="2.5" ry="2.5" style="stroke:#181818;stroke-width:0.5;" width="97" x="700.5" y="5"/><text fill="#000000" font-family="sans-serif" font-size="14" lengthAdjust="spacing" textLength="83" x="707.5" y="24.9951">presenter_i</text><rect fill="#E2E2F0" height="30.2969" rx="2.5" ry="2.5" style="stroke:#181818;stroke-width:0.5;" width="57" x="894.5" y="5"/><text fill="#000000" font-family="sans-serif" font-size="14" lengthAdjust="spacing" textLength="43" x="901.5" y="24.9951">view_i</text><rect fill="#FFFFFF" height="487.7266" style="stroke:#181818;stroke-width:1.0;" width="10" x="151" y="67.4297"/><rect fill="#FFFFFF" height="449.5938" style="stroke:#181818;stroke-width:1.0;" width="10" x="252" y="96.5625"/><rect fill="#FFFFFF" height="29.1328" style="stroke:#181818;stroke-width:1.0;" width="10" x="385" y="125.6953"/><rect fill="#FFFFFF" height="29.1328" style="stroke:#181818;stroke-width:1.0;" width="10" x="479" y="183.9609"/><rect fill="#FFFFFF" height="29.1328" style="stroke:#181818;stroke-width:1.0;" width="10" x="479" y="390.8906"/><rect fill="#FFFFFF" height="289.9297" style="stroke:#181818;stroke-width:1.0;" width="10" x="575" y="242.2266"/><rect fill="#FFFFFF" height="200.6641" style="stroke:#181818;stroke-width:1.0;" width="10" x="580" y="303.4922"/><rect fill="#FFFFFF" height="115.3984" style="stroke:#181818;stroke-width:1.0;" width="10" x="744" y="361.7578"/><rect fill="#FFFFFF" height="14" style="stroke:#181818;stroke-width:1.0;" width="10" x="918" y="449.1563"/><polygon fill="#181818" points="139,63.4297,149,67.4297,139,71.4297,143,67.4297" style="stroke:#181818;stroke-width:1.0;"/><line style="stroke:#181818;stroke-width:1.0;" x1="32" x2="145" y1="67.4297" y2="67.4297"/><text fill="#000000" font-family="sans-serif" font-size="13" lengthAdjust="spacing" textLength="100" x="39" y="62.3638">GUIInteraction()</text><polygon fill="#181818" points="240,92.5625,250,96.5625,240,100.5625,244,96.5625" style="stroke:#181818;stroke-width:1.0;"/><line style="stroke:#181818;stroke-width:1.0;" x1="161" x2="246" y1="96.5625" y2="96.5625"/><text fill="#000000" font-family="sans-serif" font-size="13" lengthAdjust="spacing" textLength="53" x="168" y="91.4966">handle()</text><polygon fill="#181818" points="373,121.6953,383,125.6953,373,129.6953,377,125.6953" style="stroke:#181818;stroke-width:1.0;"/><line style="stroke:#181818;stroke-width:1.0;" x1="262" x2="379" y1="125.6953" y2="125.6953"/><text fill="#000000" font-family="sans-serif" font-size="13" lengthAdjust="spacing" textLength="104" x="269" y="120.6294">getTempValue()</text><polygon fill="#181818" points="273,150.8281,263,154.8281,273,158.8281,269,154.8281" style="stroke:#181818;stroke-width:1.0;"/><line style="stroke:#181818;stroke-width:1.0;stroke-dasharray:2.0,2.0;" x1="267" x2="389" y1="154.8281" y2="154.8281"/><text fill="#000000" font-family="sans-serif" font-size="13" lengthAdjust="spacing" textLength="78" x="279" y="149.7622">scaledTemp</text><polygon fill="#181818" points="467,179.9609,477,183.9609,467,187.9609,471,183.9609" style="stroke:#181818;stroke-width:1.0;"/><line style="stroke:#181818;stroke-width:1.0;" x1="262" x2="473" y1="183.9609" y2="183.9609"/><text fill="#000000" font-family="sans-serif" font-size="13" lengthAdjust="spacing" textLength="198" x="269" y="178.895">convertToCelsius(scaledTemp)</text><polygon fill="#181818" points="273,209.0938,263,213.0938,273,217.0938,269,213.0938" style="stroke:#181818;stroke-width:1.0;"/><line style="stroke:#181818;stroke-width:1.0;stroke-dasharray:2.0,2.0;" x1="267" x2="483" y1="213.0938" y2="213.0938"/><text fill="#000000" font-family="sans-serif" font-size="13" lengthAdjust="spacing" textLength="80" x="279" y="208.0278">celsiusTemp</text><polygon fill="#181818" points="563,238.2266,573,242.2266,563,246.2266,567,242.2266" style="stroke:#181818;stroke-width:1.0;"/><line style="stroke:#181818;stroke-width:1.0;" x1="262" x2="569" y1="242.2266" y2="242.2266"/><text fill="#000000" font-family="sans-serif" font-size="13" lengthAdjust="spacing" textLength="147" x="269" y="237.1606">setTemp(celsiusTemp)</text><path d="M407.5,257.2266 L479.5,257.2266 L479.5,264.3594 L469.5,274.3594 L407.5,274.3594 L407.5,257.2266 " fill="#EEEEEE" style="stroke:#000000;stroke-width:1.5;"/><rect fill="none" height="261.9297" style="stroke:#000000;stroke-width:1.5;" width="564" x="407.5" y="257.2266"/><text fill="#000000" font-family="sans-serif" font-size="13" font-weight="bold" lengthAdjust="spacing" textLength="27" x="422.5" y="270.2935">opt</text><text fill="#000000" font-family="sans-serif" font-size="11" font-weight="bold" lengthAdjust="spacing" textLength="124" x="494.5" y="269.437">[temp != oldtemp]</text><line style="stroke:#181818;stroke-width:1.0;" x1="585" x2="632" y1="290.4922" y2="290.4922"/><line style="stroke:#181818;stroke-width:1.0;" x1="632" x2="632" y1="290.4922" y2="303.4922"/><line style="stroke:#181818;stroke-width:1.0;" x1="591" x2="632" y1="303.4922" y2="303.4922"/><polygon fill="#181818" points="601,299.4922,591,303.4922,601,307.4922,597,303.4922" style="stroke:#181818;stroke-width:1.0;"/><text fill="#000000" font-family="sans-serif" font-size="13" lengthAdjust="spacing" textLength="113" x="597" y="285.4263">notifyObservers()</text><path d="M417.5,323.4922 L495.5,323.4922 L495.5,330.625 L485.5,340.625 L417.5,340.625 L417.5,323.4922 " fill="#EEEEEE" style="stroke:#000000;stroke-width:1.5;"/><rect fill="none" height="161.6641" style="stroke:#000000;stroke-width:1.5;" width="544" x="417.5" y="323.4922"/><text fill="#000000" font-family="sans-serif" font-size="13" font-weight="bold" lengthAdjust="spacing" textLength="33" x="432.5" y="336.5591">loop</text><text fill="#000000" font-family="sans-serif" font-size="11" font-weight="bold" lengthAdjust="spacing" textLength="217" x="510.5" y="335.7026">[foreach registered presenter_i]</text><polygon fill="#181818" points="732,357.7578,742,361.7578,732,365.7578,736,361.7578" style="stroke:#181818;stroke-width:1.0;"/><line style="stroke:#181818;stroke-width:1.0;" x1="590" x2="738" y1="361.7578" y2="361.7578"/><text fill="#000000" font-family="sans-serif" font-size="13" lengthAdjust="spacing" textLength="135" x="597" y="356.6919">update(celsiusTemp)</text><polygon fill="#181818" points="500,386.8906,490,390.8906,500,394.8906,496,390.8906" style="stroke:#181818;stroke-width:1.0;"/><line style="stroke:#181818;stroke-width:1.0;" x1="494" x2="743" y1="390.8906" y2="390.8906"/><text fill="#000000" font-family="sans-serif" font-size="13" lengthAdjust="spacing" textLength="217" x="506" y="385.8247">convertFromCelsius(celsiusTemp)</text><polygon fill="#181818" points="732,416.0234,742,420.0234,732,424.0234,736,420.0234" style="stroke:#181818;stroke-width:1.0;"/><line style="stroke:#181818;stroke-width:1.0;stroke-dasharray:2.0,2.0;" x1="484" x2="738" y1="420.0234" y2="420.0234"/><text fill="#000000" font-family="sans-serif" font-size="13" lengthAdjust="spacing" textLength="78" x="491" y="414.9575">scaledTemp</text><polygon fill="#181818" points="906,445.1563,916,449.1563,906,453.1563,910,449.1563" style="stroke:#181818;stroke-width:1.0;"/><line style="stroke:#181818;stroke-width:1.0;" x1="754" x2="912" y1="449.1563" y2="449.1563"/><text fill="#000000" font-family="sans-serif" font-size="13" lengthAdjust="spacing" textLength="145" x="761" y="444.0903">setTemp(scaledTemp)</text><polygon fill="#181818" points="765,459.1563,755,463.1563,765,467.1563,761,463.1563" style="stroke:#181818;stroke-width:1.0;"/><line style="stroke:#181818;stroke-width:1.0;stroke-dasharray:2.0,2.0;" x1="759" x2="922" y1="463.1563" y2="463.1563"/><polygon fill="#181818" points="601,473.1563,591,477.1563,601,481.1563,597,477.1563" style="stroke:#181818;stroke-width:1.0;"/><line style="stroke:#181818;stroke-width:1.0;stroke-dasharray:2.0,2.0;" x1="595" x2="748" y1="477.1563" y2="477.1563"/><line style="stroke:#181818;stroke-width:1.0;stroke-dasharray:2.0,2.0;" x1="590" x2="632" y1="503.1563" y2="503.1563"/><line style="stroke:#181818;stroke-width:1.0;stroke-dasharray:2.0,2.0;" x1="632" x2="632" y1="503.1563" y2="516.1563"/><line style="stroke:#181818;stroke-width:1.0;stroke-dasharray:2.0,2.0;" x1="585" x2="632" y1="516.1563" y2="516.1563"/><polygon fill="#181818" points="595,512.1563,585,516.1563,595,520.1563,591,516.1563" style="stroke:#181818;stroke-width:1.0;"/><polygon fill="#181818" points="273,528.1563,263,532.1563,273,536.1563,269,532.1563" style="stroke:#181818;stroke-width:1.0;"/><line style="stroke:#181818;stroke-width:1.0;stroke-dasharray:2.0,2.0;" x1="267" x2="579" y1="532.1563" y2="532.1563"/><polygon fill="#181818" points="172,542.1563,162,546.1563,172,550.1563,168,546.1563" style="stroke:#181818;stroke-width:1.0;"/><line style="stroke:#181818;stroke-width:1.0;stroke-dasharray:2.0,2.0;" x1="166" x2="256" y1="546.1563" y2="546.1563"/><!--SRC=[TP71JiCm44Jl-OhbbXxu0IIG459HKIKE5CGDkV4ciUHu8tiJwD-phd7hKF35ikVjU3JkZKPeYNXFNvMQc5J3PbQCGAwwRvWyND_1avhL-drBDC8DFBvkDexHHv9SlQgWr8KUFGQCXC2zSjhY4O9246es-2b0Xxp3ONnJTigOHvwyWz0eYpgAbyD7xOMz1EqEujAGcz7pZXxG1ZE5-Zoyy6oI_BVfG1gjc8KKgIxWP0908mFB6QvkWQpcx1DN6Yzy7B5f3y_xW5x2XNfrGW5ixAebZwhf9LndWeH0VGxqOGgwC2y0UM8QjLImJ5eI_rUrzZJaiXRZb-t_CemV5n_FDPLLf-7iSLeLEfsrT5DS_EpV]--></g></svg>